<svg version="1.1" id="Layer_1" xmlns="http://www.w3.org/2000/svg" xmlns:xlink="http://www.w3.org/1999/xlink" x="0px" y="0px"
	 width="100%" viewBox="0 0 158 167" enable-background="new 0 0 158 167" xml:space="preserve">
<path fill="#FBFBFB" opacity="1.000000" stroke="none" 
	d="
M82.000000,168.000000 
	C54.666672,168.000000 27.833340,168.000000 1.000007,168.000000 
	C1.000005,112.333344 1.000005,56.666687 1.000002,1.000022 
	C53.666653,1.000015 106.333305,1.000015 158.999969,1.000007 
	C158.999969,56.666645 158.999969,112.333290 158.999985,167.999969 
	C133.500000,168.000000 108.000000,168.000000 82.000000,168.000000 
M136.961731,146.526138 
	C136.898499,146.359924 136.835281,146.193726 137.061646,145.364700 
	C136.968506,144.901459 136.875366,144.438217 136.974762,143.494659 
	C136.899170,143.339630 136.823578,143.184601 136.828278,142.228027 
	C134.962555,141.913391 133.101059,141.360580 131.230347,141.327454 
	C124.847931,141.214325 118.462280,141.284134 112.092743,141.284134 
	C111.978279,138.955368 111.905182,137.468094 112.355400,135.911484 
	C112.576813,135.647873 112.798218,135.384277 113.916412,135.187653 
	C116.831825,135.567688 118.642303,134.883148 118.237366,131.343338 
	C117.960777,128.925629 118.125992,126.457359 118.521713,123.706100 
	C118.798943,123.271622 119.076172,122.837143 120.235680,122.482559 
	C121.508629,122.383049 122.781578,122.283531 124.187721,122.173607 
	C124.344833,120.116051 124.478653,118.363518 124.583733,116.987404 
	C130.659134,116.248146 136.310959,115.560425 142.554428,114.791611 
	C142.651260,113.874084 142.748108,112.956551 143.289673,111.471069 
	C143.234039,111.003586 143.178421,110.536110 143.899017,110.348793 
	C145.741669,109.987823 147.584335,109.626854 149.990387,108.851456 
	C149.592346,104.962418 152.996140,104.705612 155.818054,102.671974 
	C155.818054,92.665794 155.818054,82.659615 155.818054,72.403000 
	C153.887527,72.317390 152.441727,72.253288 150.745468,71.465538 
	C150.308105,69.917580 149.870758,68.369629 149.084991,66.342476 
	C148.727768,66.303452 148.370560,66.264427 147.115234,65.935616 
	C139.721481,65.935616 132.327744,65.935616 124.808823,65.935616 
	C124.504112,63.478050 124.288147,61.736164 124.043892,59.766201 
	C121.876289,59.640369 119.928032,59.527275 118.010437,59.498760 
	C118.010437,59.498760 118.071075,59.432266 118.664612,58.891811 
	C118.042282,57.024876 117.419952,55.157936 115.887352,53.245678 
	C85.642227,53.290131 55.397110,53.334587 24.501642,53.156231 
	C24.221186,53.844143 23.940729,54.532055 23.539764,56.071789 
	C23.446890,57.212811 23.354017,58.353832 22.445847,59.238964 
	C20.746080,59.873798 19.046314,60.508633 17.232208,62.055698 
	C17.232208,82.052101 17.232208,102.048500 17.232208,122.477470 
	C19.081594,122.354675 20.522064,122.259041 22.499950,122.369209 
	C22.664455,122.270546 22.828960,122.171883 23.189215,122.967644 
	C23.468460,126.973618 23.747707,130.979599 24.051338,135.562195 
	C24.381897,135.660690 24.712458,135.759186 25.915606,135.947662 
	C30.376062,135.400177 28.893263,138.400650 28.938169,140.991989 
	C24.264620,140.991989 19.806650,141.134476 15.362405,140.948654 
	C11.535809,140.788696 10.162548,142.342133 10.910641,146.631073 
	C10.904971,146.843185 10.899301,147.055313 10.656294,147.423233 
	C10.656294,147.423233 10.584303,147.696579 10.584303,147.696579 
	C10.584303,147.696579 10.786350,147.893631 10.119593,148.125961 
	C9.305889,148.096649 8.279666,147.740097 7.720757,148.103088 
	C6.372374,148.978806 5.242441,150.190887 4.024423,151.267334 
	C5.216816,152.216766 6.293244,153.428299 7.641737,154.024902 
	C8.564913,154.433350 9.867010,153.985336 10.896002,154.833344 
	C10.896002,156.458542 10.896002,158.083740 10.896002,160.016937 
	C12.771815,160.137268 14.222143,160.311081 15.672531,160.311600 
	C54.465199,160.325394 93.257866,160.324814 132.050537,160.305664 
	C133.365067,160.305023 134.679520,160.087143 136.781006,159.717926 
	C136.833389,157.795074 136.885788,155.872208 137.770401,154.159500 
	C139.498825,154.159500 141.227264,154.159500 143.011932,154.159500 
	C143.011932,151.643890 143.011932,149.801025 143.011932,147.459213 
	C140.723160,147.679550 138.839676,147.860886 137.194321,147.447495 
	C137.039963,147.300751 136.885605,147.153992 136.961731,146.526138 
M49.211411,46.630424 
	C51.304794,47.955544 53.371326,49.060867 55.163754,45.087624 
	C55.070446,43.685356 54.977139,42.283085 54.870338,40.678043 
	C52.949017,40.678043 51.490311,40.678043 49.811596,39.813995 
	C49.940163,35.958023 50.068733,32.102051 51.086807,28.259264 
	C52.858841,28.058514 55.313210,29.070282 55.224754,25.717043 
	C55.139248,22.475624 55.206230,19.230185 55.206230,15.789024 
	C52.823891,15.789024 50.981659,15.789024 48.485756,15.789024 
	C48.485756,20.091110 48.485756,24.008934 48.094822,27.783035 
	C48.094822,27.783035 47.900665,28.153494 47.075485,28.151543 
	C45.671963,28.228395 44.268436,28.305248 42.288181,28.413679 
	C42.482327,32.576942 42.659744,36.381500 42.999992,40.877876 
	C44.909725,41.259815 46.819454,41.641750 48.747875,42.815746 
	C48.858429,43.854557 48.968983,44.893364 49.211411,46.630424 
M86.163483,27.557009 
	C86.115776,27.816797 86.068062,28.076588 85.179604,28.176414 
	C83.608322,28.260859 82.037033,28.345303 80.468414,28.429604 
	C80.468414,32.729004 80.468414,36.463146 80.468414,40.570385 
	C82.502182,40.570385 84.265022,40.570385 86.013031,41.459717 
	C86.076103,42.445793 86.246956,43.439014 86.182106,44.416607 
	C85.984627,47.393871 88.020782,47.869839 90.018929,47.294117 
	C91.281044,46.930473 93.114632,45.226601 93.025337,44.281300 
	C92.893929,42.890205 91.482399,41.362476 90.221893,40.420593 
	C89.285843,39.721146 87.723755,39.859482 86.556976,38.778954 
	C86.518944,35.653324 86.480904,32.527695 86.939926,29.245457 
	C87.303413,28.877653 87.666893,28.509851 88.885826,28.262974 
	C90.243652,27.789671 91.601479,27.316368 92.959305,26.843063 
	C92.315536,25.179974 91.671768,23.516884 90.698845,21.513060 
	C90.122536,21.629604 89.546227,21.746147 88.464706,21.753248 
	C88.304245,21.816042 88.143784,21.878836 87.350800,21.850077 
	C87.158127,22.190817 86.965454,22.531555 86.457664,23.476768 
	C86.496597,24.611019 86.535530,25.745268 86.163483,27.557009 
M63.798035,34.409889 
	C64.835297,34.356510 65.872559,34.303127 67.076836,35.129433 
	C67.170158,37.925659 67.125946,40.736343 67.417763,43.511700 
	C67.553375,44.801373 68.278809,47.045269 68.846436,47.080280 
	C70.465965,47.180180 72.141716,46.368820 73.976616,45.016701 
	C73.976616,41.630310 73.976616,38.243923 73.976616,34.561245 
	C71.910248,34.561245 70.470459,34.561245 68.779022,34.140305 
	C68.337517,34.035728 67.896011,33.931152 67.648979,32.952724 
	C67.598389,29.654531 67.547806,26.356340 68.209953,22.837244 
	C70.055298,22.190491 71.900635,21.543737 73.959618,20.012989 
	C73.959618,16.580063 73.959618,13.147135 73.959618,9.394970 
	C72.002754,9.394970 70.567162,9.394970 68.360481,9.278315 
	C67.827896,13.188195 67.295319,17.098076 66.812515,20.642517 
	C65.011307,21.393274 63.352573,22.084646 61.408592,23.338999 
	C61.423870,23.548819 61.439144,23.758638 61.169144,24.705864 
	C61.151371,27.311956 61.011978,29.927053 61.203735,32.517635 
	C61.250057,33.143478 62.391186,33.688282 63.798035,34.409889 
z"/>
<path fill="#C7B8B8" opacity="1.000000" stroke="none" 
	d="
M118.071075,59.432266 
	C118.071075,59.432266 118.010437,59.498760 118.040207,59.961571 
	C118.146805,80.948807 118.223633,101.473236 118.049667,121.978149 
	C117.533073,122.145576 117.267296,122.332527 116.547028,122.521500 
	C112.997025,122.134033 111.484306,123.251259 111.794525,126.607018 
	C112.020409,129.050430 111.854622,131.530060 111.640503,134.126678 
	C111.281143,134.572083 111.144722,134.884369 110.588531,135.148956 
	C108.727119,135.177277 107.285461,135.253296 105.713638,135.336182 
	C105.454247,137.458786 105.240936,139.204391 105.022255,140.993866 
	C82.066917,140.993866 59.473610,140.993866 36.780804,140.993866 
	C36.459023,138.968765 36.180229,137.214188 35.893898,135.412186 
	C33.927628,135.143448 32.174648,134.903854 30.290831,134.646393 
	C30.290831,132.548935 30.290831,130.755569 30.739573,128.963745 
	C49.268284,128.965271 67.348251,128.965271 85.877274,128.965271 
	C84.903450,123.022339 88.165588,121.494865 92.521088,121.524475 
	C92.918480,119.550148 93.236259,117.971367 93.547020,116.427483 
	C95.403160,116.084877 96.987251,115.792480 98.602409,115.494354 
	C98.917030,113.656815 99.188568,112.070877 99.470093,110.426620 
	C101.309845,110.107872 102.893517,109.833488 105.014961,109.465935 
	C105.014961,93.530525 105.014961,77.769577 104.868347,61.771255 
	C103.810463,61.015770 102.899200,60.497658 102.419769,59.789558 
	C107.894936,59.566422 112.938286,59.533279 118.009315,59.490181 
	C118.036995,59.480225 118.071075,59.432266 118.071075,59.432266 
z"/>
<path fill="#262524" opacity="1.000000" stroke="none" 
	d="
M30.290831,128.962204 
	C30.290831,130.755569 30.290831,132.548935 30.290831,134.646393 
	C32.174648,134.903854 33.927628,135.143448 35.893898,135.412186 
	C36.180229,137.214188 36.459023,138.968765 36.780804,140.993866 
	C59.473610,140.993866 82.066917,140.993866 105.022255,140.993866 
	C105.240936,139.204391 105.454247,137.458786 105.713638,135.336182 
	C107.285461,135.253296 108.727119,135.177277 110.623825,135.370255 
	C111.233841,135.964951 111.484909,136.078812 111.832077,135.980835 
	C111.905182,137.468094 111.978279,138.955368 112.092743,141.284134 
	C118.462280,141.284134 124.847931,141.214325 131.230347,141.327454 
	C133.101059,141.360580 134.962555,141.913391 136.567352,142.670105 
	C136.071579,143.251144 135.836731,143.390106 135.601868,143.529053 
	C135.995316,143.677704 136.388779,143.826340 136.782227,143.974976 
	C136.875366,144.438217 136.968506,144.901459 136.622559,145.759674 
	C135.843765,146.583862 135.504044,147.013077 135.160965,147.627747 
	C135.157608,147.813217 135.050079,148.168365 134.695709,148.032013 
	C133.869537,147.726868 133.397766,147.558090 132.774857,147.053680 
	C127.440300,146.945190 122.256874,147.172348 116.630356,147.570374 
	C110.120407,147.883438 104.053551,148.025635 97.532471,148.051147 
	C91.723503,148.012558 86.368759,148.090668 80.569260,148.041840 
	C76.745277,147.999542 73.366051,148.084167 69.555725,148.053467 
	C66.754379,148.015030 64.384148,148.091904 61.576641,148.042084 
	C58.421749,148.000351 55.704128,148.085297 52.531738,148.053970 
	C46.694691,147.762589 41.312416,147.587509 35.851196,147.149887 
	C34.871601,147.054977 33.970951,147.222595 32.629414,147.562927 
	C27.121033,147.884384 22.053539,148.033127 16.588955,148.065994 
	C15.100541,148.029678 14.009220,148.109253 12.826145,148.021912 
	C12.477173,147.770660 12.285990,147.608414 12.038013,147.093994 
	C11.630422,146.550629 11.345661,146.281555 11.060900,146.012466 
	C10.162548,142.342133 11.535809,140.788696 15.362405,140.948654 
	C19.806650,141.134476 24.264620,140.991989 28.938169,140.991989 
	C28.893263,138.400650 30.376062,135.400177 25.347946,135.713135 
	C24.601332,135.204025 24.350220,135.039673 24.026953,134.985565 
	C23.747707,130.979599 23.468460,126.973618 23.067738,122.516296 
	C22.946260,122.064941 22.921522,122.023918 23.312307,122.056824 
	C24.471395,122.100044 25.239697,122.110359 26.388191,122.238998 
	C32.210506,122.282799 28.997782,126.823982 30.290831,128.962204 
z"/>
<path fill="#1F1D1C" opacity="1.000000" stroke="none" 
	d="
M118.300468,121.997665 
	C118.223633,101.473236 118.146805,80.948807 118.024872,59.919281 
	C119.928032,59.527275 121.876289,59.640369 124.043892,59.766201 
	C124.288147,61.736164 124.504112,63.478050 124.808823,65.935616 
	C132.327744,65.935616 139.721481,65.935616 147.597916,66.344177 
	C148.368439,67.162148 148.656265,67.571541 148.996567,68.320534 
	C149.006042,69.114487 148.963043,69.568840 148.766571,70.103577 
	C148.551834,70.280609 148.416138,70.426010 148.442032,70.465538 
	C148.561218,70.647438 148.725494,70.799797 148.828827,71.252640 
	C148.478683,71.786865 148.173309,72.031212 147.409515,72.240608 
	C139.572342,72.205666 132.193604,72.205666 124.673584,72.205666 
	C124.673584,74.599556 124.673584,76.315620 124.673584,78.620712 
	C128.877625,78.620712 132.759430,78.620712 137.030563,78.620712 
	C137.030563,81.154152 137.030563,83.106895 136.565460,85.045990 
	C132.375549,85.032341 128.650726,85.032341 124.661636,85.032341 
	C124.661636,89.301964 124.661636,92.996956 124.661636,97.146408 
	C129.121506,97.146408 133.347198,97.146408 137.833557,97.121307 
	C138.445877,97.083580 138.797501,97.070946 139.070999,97.189957 
	C138.992859,97.321594 138.895874,97.612000 138.501694,97.611282 
	C137.859619,98.031319 137.611725,98.452072 137.223358,99.190781 
	C137.052231,100.667320 137.021545,101.825890 136.593826,103.068001 
	C135.423798,103.374275 134.650787,103.597015 133.466095,103.714340 
	C123.731415,103.335022 123.731415,103.335022 125.026093,110.057213 
	C130.936920,110.057213 136.974030,110.057213 143.039001,110.060532 
	C143.066879,110.063843 143.122803,110.068626 143.122803,110.068626 
	C143.178421,110.536110 143.234039,111.003586 142.761871,111.884872 
	C142.143661,113.156693 142.053223,114.014702 141.962784,114.872711 
	C136.310959,115.560425 130.659134,116.248146 124.583733,116.987404 
	C124.478653,118.363518 124.344833,120.116051 124.187721,122.173607 
	C122.781578,122.283531 121.508629,122.383049 119.564804,122.254250 
	C118.696106,122.016518 118.498291,122.007088 118.300468,121.997665 
z"/>
<path fill="#232120" opacity="1.000000" stroke="none" 
	d="
M135.994003,159.970520 
	C134.679520,160.087143 133.365067,160.305023 132.050537,160.305664 
	C93.257866,160.324814 54.465199,160.325394 15.672531,160.311600 
	C14.222143,160.311081 12.771815,160.137268 10.896002,160.016937 
	C10.896002,158.083740 10.896002,156.458542 10.921615,154.403198 
	C10.947227,153.973053 10.953631,154.047302 11.424583,154.017242 
	C44.627163,153.976868 77.358803,153.950089 110.090416,153.967758 
	C118.390892,153.972229 126.691284,154.118103 134.995148,154.574982 
	C135.330383,156.624130 135.662201,158.297333 135.994003,159.970520 
z"/>
<path fill="#191919" opacity="1.000000" stroke="none" 
	d="
M117.981628,59.500137 
	C112.938286,59.533279 107.894936,59.566422 101.968468,59.662666 
	C92.463326,59.699291 83.840912,59.609138 75.219353,59.660904 
	C61.471760,59.743450 47.724735,59.920433 33.656105,59.878723 
	C30.897783,59.819000 28.460817,59.938034 25.762928,59.957245 
	C25.337656,59.945042 25.173311,60.032661 24.687231,59.997795 
	C23.913786,59.954704 23.462074,60.034103 23.185696,60.004501 
	C23.361031,59.895496 23.261145,59.494854 23.261145,59.494854 
	C23.354017,58.353832 23.446890,57.212811 23.839720,55.565804 
	C24.477112,54.499561 24.814550,53.939301 25.151989,53.379040 
	C55.397110,53.334587 85.642227,53.290131 116.496841,53.690300 
	C117.398102,55.923325 117.689865,57.711731 117.981628,59.500137 
z"/>
<path fill="#1C1C1C" opacity="1.000000" stroke="none" 
	d="
M21.962536,122.163399 
	C20.522064,122.259041 19.081594,122.354675 17.232208,122.477470 
	C17.232208,102.048500 17.232208,82.052101 17.557842,61.587112 
	C18.228069,61.034771 18.572664,60.951012 19.033047,61.057541 
	C19.473665,61.104633 19.798492,60.961437 20.407166,60.758846 
	C21.076984,60.701111 21.462955,60.702770 21.891647,61.146996 
	C22.370771,63.424946 22.807171,65.260338 23.384018,67.540558 
	C23.690945,73.330223 23.857422,78.675049 23.867504,84.460892 
	C23.815384,95.600761 23.919657,106.299622 23.884203,117.322235 
	C23.833448,118.098083 23.922419,118.550201 23.854626,119.219574 
	C23.550335,119.946373 23.402807,120.455910 22.978289,121.091553 
	C22.455046,121.532906 22.208792,121.848152 21.962536,122.163399 
z"/>
<path fill="#151615" opacity="1.000000" stroke="none" 
	d="
M150.995926,72.189178 
	C152.441727,72.253288 153.887527,72.317390 155.818054,72.403000 
	C155.818054,82.659615 155.818054,92.665794 155.127960,102.919998 
	C152.792572,103.051613 151.147293,102.935204 149.524963,102.361725 
	C149.551544,92.618141 149.555161,83.331635 149.756348,73.903610 
	C150.301270,73.237785 150.648605,72.713486 150.995926,72.189178 
z"/>
<path fill="#181818" opacity="1.000000" stroke="none" 
	d="
M86.027870,40.570385 
	C84.265022,40.570385 82.502182,40.570385 80.468414,40.570385 
	C80.468414,36.463146 80.468414,32.729004 80.468414,28.429604 
	C82.037033,28.345303 83.608322,28.260859 85.600403,28.564526 
	C86.161751,29.102446 86.302307,29.252256 86.442871,29.402067 
	C86.480904,32.527695 86.518944,35.653324 86.291725,39.392921 
	C86.026947,40.194725 86.027412,40.382553 86.027870,40.570385 
z"/>
<path fill="#292929" opacity="1.000000" stroke="none" 
	d="
M48.485756,27.926760 
	C48.485756,24.008934 48.485756,20.091110 48.485756,15.789024 
	C50.981659,15.789024 52.823891,15.789024 55.206230,15.789024 
	C55.206230,19.230185 55.139248,22.475624 55.224754,25.717043 
	C55.313210,29.070282 52.858841,28.058514 50.232872,28.072548 
	C49.081211,27.899477 48.783482,27.913118 48.485756,27.926760 
z"/>
<path fill="#181818" opacity="1.000000" stroke="none" 
	d="
M42.837162,40.186058 
	C42.659744,36.381500 42.482327,32.576942 42.288181,28.413679 
	C44.268436,28.305248 45.671963,28.228395 47.553955,28.603109 
	C48.032425,32.606625 48.032425,36.158569 48.032425,39.916931 
	C46.045208,40.019875 44.441185,40.102966 42.837162,40.186058 
z"/>
<path fill="#262324" opacity="1.000000" stroke="none" 
	d="
M111.863449,133.993546 
	C111.854622,131.530060 112.020409,129.050430 111.794525,126.607018 
	C111.484306,123.251259 112.997025,122.134033 116.630905,122.832924 
	C117.477409,123.432114 117.785545,123.721901 118.093689,124.011688 
	C118.125992,126.457359 117.960777,128.925629 118.237366,131.343338 
	C118.642303,134.883148 116.831825,135.567688 113.351341,134.898010 
	C112.478661,134.403442 112.171059,134.198486 111.863449,133.993546 
z"/>
<path fill="#151515" opacity="1.000000" stroke="none" 
	d="
M69.131569,9.394970 
	C70.567162,9.394970 72.002754,9.394970 73.959618,9.394970 
	C73.959618,13.147135 73.959618,16.580063 73.430542,20.471493 
	C69.991859,21.453819 68.535645,20.487886 68.834717,17.290436 
	C69.079597,14.672263 69.043243,12.027786 69.131569,9.394970 
z"/>
<path fill="#151515" opacity="1.000000" stroke="none" 
	d="
M69.030670,34.561245 
	C70.470459,34.561245 71.910248,34.561245 73.976616,34.561245 
	C73.976616,38.243923 73.976616,41.630310 73.458168,45.501896 
	C70.076378,46.517803 68.565231,45.631191 68.832031,42.417824 
	C69.048431,39.811432 68.975357,37.181011 69.030670,34.561245 
z"/>
<path fill="#5B5B5B" opacity="1.000000" stroke="none" 
	d="
M86.020447,41.015053 
	C86.027412,40.382553 86.026947,40.194725 86.233498,39.815773 
	C87.723755,39.859482 89.285843,39.721146 90.221893,40.420593 
	C91.482399,41.362476 92.893929,42.890205 93.025337,44.281300 
	C93.114632,45.226601 91.281044,46.930473 90.018929,47.294117 
	C88.020782,47.869839 85.984627,47.393871 86.182106,44.416607 
	C86.246956,43.439014 86.076103,42.445793 86.020447,41.015053 
z"/>
<path fill="#565656" opacity="1.000000" stroke="none" 
	d="
M68.746025,9.336642 
	C69.043243,12.027786 69.079597,14.672263 68.834717,17.290436 
	C68.535645,20.487886 69.991859,21.453819 73.323723,20.913490 
	C71.900635,21.543737 70.055298,22.190491 67.372566,22.890450 
	C64.921402,22.887775 63.307621,22.831896 61.693840,22.776016 
	C63.352573,22.084646 65.011307,21.393274 66.812515,20.642517 
	C67.295319,17.098076 67.827896,13.188195 68.746025,9.336642 
z"/>
<path fill="#151515" opacity="1.000000" stroke="none" 
	d="
M61.551216,23.057507 
	C63.307621,22.831896 64.921402,22.887775 67.016197,23.000900 
	C67.547806,26.356340 67.598389,29.654531 67.344955,33.404678 
	C67.040939,33.856628 66.909821,34.249744 66.909821,34.249744 
	C65.872559,34.303127 64.835297,34.356510 63.326241,33.875031 
	C62.387768,30.216267 61.921093,27.092361 61.454418,23.968456 
	C61.439144,23.758638 61.423870,23.548819 61.551216,23.057507 
z"/>
<path fill="#292828" opacity="1.000000" stroke="none" 
	d="
M136.956177,148.042206 
	C138.839676,147.860886 140.723160,147.679550 143.011932,147.459213 
	C143.011932,149.801025 143.011932,151.643890 143.011932,154.159500 
	C141.227264,154.159500 139.498825,154.159500 137.381760,154.077728 
	C136.993118,153.995941 137.046112,154.044083 136.994507,153.702667 
	C136.843475,152.913406 136.744064,152.465591 136.762329,151.685043 
	C136.807175,150.893692 136.734375,150.435043 136.764725,149.649902 
	C136.926575,148.870956 136.985275,148.418518 137.025604,147.989227 
	C137.007217,148.012390 136.956177,148.042206 136.956177,148.042206 
z"/>
<path fill="#292828" opacity="1.000000" stroke="none" 
	d="
M10.973471,153.946625 
	C9.867010,153.985336 8.564913,154.433350 7.641737,154.024902 
	C6.293244,153.428299 5.216816,152.216766 4.024422,151.267334 
	C5.242441,150.190887 6.372374,148.978806 7.720757,148.103088 
	C8.279666,147.740097 9.305889,148.096649 10.454271,148.338593 
	C10.975176,148.665787 11.161402,148.780350 11.280052,149.169373 
	C11.261257,149.625687 11.310040,149.807541 11.259130,150.322327 
	C11.226143,151.108826 11.292849,151.562408 11.266486,152.349030 
	C11.100157,153.137161 11.026896,153.592239 10.953632,154.047302 
	C10.953631,154.047302 10.947227,153.973053 10.973471,153.946625 
z"/>
<path fill="#858585" opacity="1.000000" stroke="none" 
	d="
M42.918579,40.531967 
	C44.441185,40.102966 46.045208,40.019875 48.032425,39.916931 
	C48.032425,36.158569 48.032425,32.606625 47.966545,28.604084 
	C47.900665,28.153494 48.094822,27.783035 48.290291,27.854897 
	C48.783482,27.913118 49.081211,27.899477 49.788120,28.065956 
	C50.068733,32.102051 49.940163,35.958023 49.800228,40.550507 
	C49.435638,41.532578 49.082413,41.778133 48.729187,42.023689 
	C46.819454,41.641750 44.909725,41.259815 42.918579,40.531967 
z"/>
<path fill="#565656" opacity="1.000000" stroke="none" 
	d="
M68.904846,34.350777 
	C68.975357,37.181011 69.048431,39.811432 68.832031,42.417824 
	C68.565231,45.631191 70.076378,46.517803 73.367538,45.951523 
	C72.141716,46.368820 70.465965,47.180180 68.846436,47.080280 
	C68.278809,47.045269 67.553375,44.801373 67.417763,43.511700 
	C67.125946,40.736343 67.170158,37.925659 66.993332,34.689590 
	C66.909821,34.249744 67.040939,33.856628 67.247726,33.841602 
	C67.896011,33.931152 68.337517,34.035728 68.904846,34.350777 
z"/>
<path fill="#2C2C2C" opacity="1.000000" stroke="none" 
	d="
M87.983330,21.941629 
	C88.143784,21.878836 88.304245,21.816042 88.854820,22.050289 
	C89.839287,22.182816 90.433640,22.018305 91.027992,21.853794 
	C91.671768,23.516884 92.315536,25.179974 92.959305,26.843063 
	C91.601479,27.316368 90.243652,27.789671 88.365448,27.962845 
	C87.421532,27.401649 86.998001,27.140585 86.574471,26.879519 
	C86.535530,25.745268 86.496597,24.611019 86.890526,23.135773 
	C87.543365,22.510397 87.763351,22.226013 87.983330,21.941629 
z"/>
<path fill="#222222" opacity="1.000000" stroke="none" 
	d="
M48.738533,42.419716 
	C49.082413,41.778133 49.435638,41.532578 49.910233,40.982533 
	C51.490311,40.678043 52.949017,40.678043 54.870338,40.678043 
	C54.977139,42.283085 55.070446,43.685356 54.625221,45.489918 
	C52.417641,45.905533 50.748589,45.918854 49.079536,45.932175 
	C48.968983,44.893364 48.858429,43.854557 48.738533,42.419716 
z"/>
<path fill="#898785" opacity="1.000000" stroke="none" 
	d="
M149.501999,102.818802 
	C151.147293,102.935204 152.792572,103.051613 154.842957,103.258148 
	C152.996140,104.705612 149.592346,104.962418 149.495209,108.831612 
	C148.700043,108.537544 148.400070,108.263321 148.115845,107.601761 
	C148.423721,105.967209 148.715851,104.720001 149.047302,103.245712 
	C149.086655,103.018639 149.501999,102.818802 149.501999,102.818802 
z"/>
<path fill="#565656" opacity="1.000000" stroke="none" 
	d="
M61.311783,24.337160 
	C61.921093,27.092361 62.387768,30.216267 62.941654,33.805260 
	C62.391186,33.688282 61.250057,33.143478 61.203735,32.517635 
	C61.011978,29.927053 61.151371,27.311956 61.311783,24.337160 
z"/>
<path fill="#898785" opacity="1.000000" stroke="none" 
	d="
M150.870697,71.827362 
	C150.648605,72.713486 150.301270,73.237785 149.425537,73.836609 
	C148.554092,73.365944 148.211014,72.820755 147.867950,72.275558 
	C148.173309,72.031212 148.478683,71.786865 148.889160,71.020172 
	C148.994278,70.497826 148.920059,70.023193 148.920044,70.023193 
	C148.963043,69.568840 149.006042,69.114487 149.086578,68.017082 
	C149.227219,67.189919 149.330307,67.005798 149.433411,66.821671 
	C149.870758,68.369629 150.308105,69.917580 150.870697,71.827362 
z"/>
<path fill="#858585" opacity="1.000000" stroke="none" 
	d="
M49.145473,46.281300 
	C50.748589,45.918854 52.417641,45.905533 54.503693,45.912575 
	C53.371326,49.060867 51.304794,47.955544 49.145473,46.281300 
z"/>
<path fill="#898785" opacity="1.000000" stroke="none" 
	d="
M118.009308,59.490181 
	C117.689865,57.711731 117.398102,55.923325 116.951981,53.712959 
	C117.419952,55.157936 118.042282,57.024876 118.367844,59.162041 
	C118.071075,59.432266 118.036995,59.480225 118.009308,59.490181 
z"/>
<path fill="#4A4746" opacity="1.000000" stroke="none" 
	d="
M148.100082,107.989090 
	C148.400070,108.263321 148.700043,108.537544 149.213501,109.038826 
	C147.584335,109.626854 145.741669,109.987823 143.510910,110.208710 
	C143.122803,110.068626 143.066879,110.063843 143.053131,109.694595 
	C143.149750,108.852402 143.260117,108.379463 143.762558,107.919479 
	C145.469788,107.951324 146.784927,107.970207 148.100082,107.989090 
z"/>
<path fill="#292828" opacity="1.000000" stroke="none" 
	d="
M136.387512,159.844223 
	C135.662201,158.297333 135.330383,156.624130 135.326157,154.464310 
	C136.117874,153.999817 136.581985,154.021957 137.046112,154.044083 
	C137.046112,154.044083 136.993118,153.995941 136.965652,153.972656 
	C136.885788,155.872208 136.833389,157.795074 136.387512,159.844223 
z"/>
<path fill="#696565" opacity="1.000000" stroke="none" 
	d="
M18.917259,60.867256 
	C18.572664,60.951012 18.228069,61.034771 17.615013,61.130997 
	C19.046314,60.508633 20.746080,59.873798 22.853497,59.366909 
	C23.261145,59.494854 23.361031,59.895496 23.173794,59.958488 
	C22.986559,60.021484 23.070499,59.976177 22.878769,60.120804 
	C22.364309,60.329029 22.084938,60.475361 21.848927,60.704430 
	C21.462955,60.702770 21.076984,60.701111 20.103651,60.739838 
	C19.316612,60.809231 19.116936,60.838245 18.917259,60.867256 
z"/>
<path fill="#4A4746" opacity="1.000000" stroke="none" 
	d="
M142.258606,114.832161 
	C142.053223,114.014702 142.143661,113.156693 142.539520,112.168854 
	C142.748108,112.956551 142.651260,113.874084 142.258606,114.832161 
z"/>
<path fill="#5B5B5B" opacity="1.000000" stroke="none" 
	d="
M90.863419,21.683426 
	C90.433640,22.018305 89.839287,22.182816 89.107422,22.105011 
	C89.546227,21.746147 90.122536,21.629604 90.863419,21.683426 
z"/>
<path fill="#5B5B5B" opacity="1.000000" stroke="none" 
	d="
M86.368973,27.218264 
	C86.998001,27.140585 87.421532,27.401649 87.937714,27.902382 
	C87.666893,28.509851 87.303413,28.877653 86.691399,29.323761 
	C86.302307,29.252256 86.161751,29.102446 86.020782,28.644508 
	C86.068062,28.076588 86.115776,27.816797 86.368973,27.218264 
z"/>
<path fill="#C8B8B8" opacity="1.000000" stroke="none" 
	d="
M12.160844,147.368271 
	C12.285990,147.608414 12.477173,147.770660 12.698632,148.219391 
	C12.224458,148.687500 11.786043,148.791199 11.347629,148.894913 
	C11.161402,148.780350 10.975176,148.665787 10.787650,148.222443 
	C10.786350,147.893631 10.584303,147.696579 10.584303,147.696579 
	C10.584303,147.696579 10.656294,147.423233 11.084386,147.462830 
	C11.728601,147.457703 11.944722,147.412979 12.160844,147.368271 
z"/>
<path fill="#696565" opacity="1.000000" stroke="none" 
	d="
M111.640503,134.126678 
	C112.171059,134.198486 112.478661,134.403442 112.902954,134.864532 
	C112.798218,135.384277 112.576813,135.647873 112.093735,135.946167 
	C111.484909,136.078812 111.233841,135.964951 111.043587,135.417953 
	C111.144722,134.884369 111.281143,134.572083 111.640503,134.126678 
z"/>
<path fill="#696565" opacity="1.000000" stroke="none" 
	d="
M118.307701,123.858894 
	C117.785545,123.721901 117.477409,123.432114 117.085396,122.830902 
	C117.267296,122.332527 117.533073,122.145576 118.049667,121.978149 
	C118.498291,122.007088 118.696106,122.016518 119.123665,122.214302 
	C119.076172,122.837143 118.798943,123.271622 118.307701,123.858894 
z"/>
<path fill="#696565" opacity="1.000000" stroke="none" 
	d="
M24.826817,53.267635 
	C24.814550,53.939301 24.477112,54.499561 23.899973,55.139893 
	C23.940729,54.532055 24.221186,53.844143 24.826817,53.267635 
z"/>
<path fill="#120F0E" opacity="1.000000" stroke="none" 
	d="
M136.878494,143.734818 
	C136.388779,143.826340 135.995316,143.677704 135.601868,143.529053 
	C135.836731,143.390106 136.071579,143.251144 136.527206,143.070862 
	C136.823578,143.184601 136.899170,143.339630 136.878494,143.734818 
z"/>
<path fill="#120F0E" opacity="1.000000" stroke="none" 
	d="
M135.164322,147.442276 
	C135.504044,147.013077 135.843765,146.583862 136.477783,146.091095 
	C136.835281,146.193726 136.898499,146.359924 136.511749,146.828857 
	C135.858139,147.232132 135.654526,147.332687 135.380722,147.464767 
	C135.310547,147.496277 135.164322,147.442276 135.164322,147.442276 
z"/>
<path fill="#131112" opacity="1.000000" stroke="none" 
	d="
M149.259201,66.582077 
	C149.330307,67.005798 149.227219,67.189919 149.034103,67.677483 
	C148.656265,67.571541 148.368439,67.162148 148.046967,66.489075 
	C148.370560,66.264427 148.727768,66.303452 149.259201,66.582077 
z"/>
<path fill="#262524" opacity="1.000000" stroke="none" 
	d="
M135.450897,147.433258 
	C135.654526,147.332687 135.858139,147.232132 136.396515,147.069412 
	C136.885605,147.153992 137.039963,147.300751 137.075256,147.744843 
	C136.956177,148.042206 137.007217,148.012390 136.745087,147.944794 
	C136.138947,147.729233 135.794922,147.581238 135.450897,147.433258 
z"/>
<path fill="#5B5B5B" opacity="1.000000" stroke="none" 
	d="
M87.667068,21.895853 
	C87.763351,22.226013 87.543365,22.510397 87.048080,22.833538 
	C86.965454,22.531555 87.158127,22.190817 87.667068,21.895853 
z"/>
<path fill="#0F0C0C" opacity="1.000000" stroke="none" 
	d="
M22.231243,122.266304 
	C22.208792,121.848152 22.455046,121.532906 23.032124,121.399460 
	C23.215805,121.728813 23.068665,121.876366 22.921522,122.023918 
	C22.921522,122.023918 22.946260,122.064941 22.969864,122.069077 
	C22.828960,122.171883 22.664455,122.270546 22.231243,122.266304 
z"/>
<path fill="#120F0E" opacity="1.000000" stroke="none" 
	d="
M12.038013,147.093994 
	C11.944722,147.412979 11.728601,147.457703 11.203054,147.384933 
	C10.899301,147.055313 10.904971,146.843185 10.985771,146.321777 
	C11.345661,146.281555 11.630422,146.550629 12.038013,147.093994 
z"/>
<path fill="#696565" opacity="1.000000" stroke="none" 
	d="
M24.039146,135.273880 
	C24.350220,135.039673 24.601332,135.204025 24.911652,135.668152 
	C24.712458,135.759186 24.381897,135.660690 24.039146,135.273880 
z"/>
<path fill="#DECDC9" opacity="1.000000" stroke="none" 
	d="
M24.023899,84.019882 
	C23.857422,78.675049 23.690945,73.330223 23.495922,67.102951 
	C23.335087,64.139069 23.202793,62.057621 23.070499,59.976177 
	C23.070499,59.976177 22.986559,60.021484 22.998461,60.067493 
	C23.462074,60.034103 23.913786,59.954704 24.794643,60.381496 
	C27.071016,61.258507 28.917288,61.946636 30.765614,61.952198 
	C55.515228,62.026676 80.265129,62.005802 105.014961,62.008625 
	C105.014961,77.769577 105.014961,93.530525 105.014961,109.465935 
	C102.893517,109.833488 101.309845,110.107872 99.470093,110.426620 
	C99.188568,112.070877 98.917030,113.656815 98.602409,115.494354 
	C96.987251,115.792480 95.403160,116.084877 93.547020,116.427483 
	C93.236259,117.971367 92.918480,119.550148 92.521088,121.524475 
	C88.165588,121.494865 84.903450,123.022339 85.877274,128.965271 
	C67.348251,128.965271 49.268284,128.965271 30.739573,128.963745 
	C28.997782,126.823982 32.210506,122.282799 26.382210,121.876572 
	C25.334488,120.598000 24.672937,119.800156 24.011391,119.002312 
	C23.922419,118.550201 23.833448,118.098083 24.276527,117.223679 
	C25.178143,116.302643 25.865459,115.806892 25.870199,115.304710 
	C25.958761,105.919601 26.028406,96.532913 25.903957,87.149178 
	C25.890015,86.097946 24.679510,85.062599 24.023899,84.019882 
M37.909069,66.219055 
	C33.931484,71.395866 36.581371,77.293663 36.395695,82.834862 
	C36.362026,83.839684 39.520992,84.951485 41.759659,86.362938 
	C41.868504,86.893318 41.715282,88.622269 42.490829,89.322395 
	C43.548210,90.276932 45.317791,90.816132 46.773884,90.800003 
	C47.517509,90.791771 48.756626,89.229126 48.838081,88.288231 
	C48.925690,87.276207 47.931816,85.254234 47.389091,85.247093 
	C42.489250,85.182571 42.941273,81.842896 42.986382,78.634987 
	C43.025993,75.817909 42.826889,72.987267 43.037342,70.185463 
	C43.283325,66.910652 42.051285,65.511177 37.909069,66.219055 
z"/>
<path fill="#E3D3D2" opacity="1.000000" stroke="none" 
	d="
M104.868347,61.771255 
	C80.265129,62.005802 55.515228,62.026676 30.765614,61.952198 
	C28.917288,61.946636 27.071016,61.258507 25.116377,60.503986 
	C25.173311,60.032661 25.337656,59.945042 26.031345,60.233860 
	C29.032946,60.426025 31.505207,60.241753 33.977467,60.057480 
	C47.724735,59.920433 61.471760,59.743450 75.219353,59.660904 
	C83.840912,59.609138 92.463326,59.699291 101.536652,59.852661 
	C102.899200,60.497658 103.810463,61.015770 104.868347,61.771255 
z"/>
<path fill="#C8B8B8" opacity="1.000000" stroke="none" 
	d="
M11.359554,152.015976 
	C11.292849,151.562408 11.226143,151.108826 11.637840,150.321747 
	C13.739511,149.386108 15.362779,148.783981 16.986046,148.181870 
	C22.053539,148.033127 27.121033,147.884384 32.948135,147.692612 
	C34.139744,147.791977 34.571743,147.934372 35.107014,148.464813 
	C40.930298,149.065643 46.649982,149.291626 52.371731,149.434708 
	C52.565994,149.439560 52.781105,148.610580 52.986504,148.170258 
	C55.704128,148.085297 58.421749,148.000351 61.674576,148.404297 
	C64.956375,150.307770 67.681137,151.487930 69.986824,148.168808 
	C73.366051,148.084167 76.745277,147.999542 80.678345,148.420975 
	C86.477142,149.195251 91.721176,149.491913 96.969299,149.662598 
	C97.291885,149.673096 97.646812,148.689102 97.986694,148.167816 
	C104.053551,148.025635 110.120407,147.883438 117.076546,147.694443 
	C122.952545,147.561523 127.939262,147.475418 132.925980,147.389313 
	C133.397766,147.558090 133.869537,147.726868 134.723938,148.306885 
	C135.624893,149.137543 136.143234,149.556976 136.661575,149.976410 
	C136.734375,150.435043 136.807175,150.893692 136.318359,151.681931 
	C94.291008,152.013016 52.825279,152.014496 11.359554,152.015976 
z"/>
<path fill="#CDBFBE" opacity="1.000000" stroke="none" 
	d="
M52.531734,148.053970 
	C52.781105,148.610580 52.565994,149.439560 52.371731,149.434708 
	C46.649982,149.291626 40.930298,149.065643 35.335358,148.294174 
	C35.617001,147.627808 35.773571,147.520111 35.930138,147.412430 
	C41.312416,147.587509 46.694691,147.762589 52.531734,148.053970 
z"/>
<path fill="#CDBFBE" opacity="1.000000" stroke="none" 
	d="
M97.532471,148.051132 
	C97.646812,148.689102 97.291885,149.673096 96.969299,149.662598 
	C91.721176,149.491913 86.477142,149.195251 81.123100,148.547913 
	C86.368759,148.090668 91.723503,148.012558 97.532471,148.051132 
z"/>
<path fill="#120F0E" opacity="1.000000" stroke="none" 
	d="
M132.774857,147.053680 
	C127.939262,147.475418 122.952545,147.561523 117.519638,147.523560 
	C122.256874,147.172348 127.440300,146.945190 132.774857,147.053680 
z"/>
<path fill="#CDBFBE" opacity="1.000000" stroke="none" 
	d="
M69.555725,148.053467 
	C67.681137,151.487930 64.956375,150.307770 62.111847,148.530991 
	C64.384148,148.091904 66.754379,148.015030 69.555725,148.053467 
z"/>
<path fill="#CDBFBE" opacity="1.000000" stroke="none" 
	d="
M16.588955,148.065994 
	C15.362779,148.783981 13.739511,149.386108 11.737532,149.988800 
	C11.310040,149.807541 11.261257,149.625687 11.280052,149.169373 
	C11.786043,148.791199 12.224458,148.687500 12.790386,148.386307 
	C14.009220,148.109253 15.100541,148.029678 16.588955,148.065994 
z"/>
<path fill="#E3D3D2" opacity="1.000000" stroke="none" 
	d="
M23.854626,119.219574 
	C24.672937,119.800156 25.334488,120.598000 26.002018,121.758255 
	C25.239697,122.110359 24.471395,122.100044 23.312307,122.056824 
	C23.068665,121.876366 23.215805,121.728813 23.309113,121.273361 
	C23.402807,120.455910 23.550335,119.946373 23.854626,119.219574 
z"/>
<path fill="#120F0E" opacity="1.000000" stroke="none" 
	d="
M35.851196,147.149887 
	C35.773571,147.520111 35.617001,147.627808 35.232086,147.906128 
	C34.571743,147.934372 34.139744,147.791977 33.389023,147.519897 
	C33.970951,147.222595 34.871601,147.054977 35.851196,147.149887 
z"/>
<path fill="#D0C2C2" opacity="1.000000" stroke="none" 
	d="
M136.764725,149.649902 
	C136.143234,149.556976 135.624893,149.137543 135.078308,148.443237 
	C135.050079,148.168365 135.157608,147.813217 135.160965,147.627747 
	C135.164322,147.442276 135.310547,147.496277 135.380722,147.464767 
	C135.794922,147.581238 136.138947,147.729233 136.763474,147.921646 
	C136.985275,148.418518 136.926575,148.870956 136.764725,149.649902 
z"/>
<path fill="#D3C4C3" opacity="1.000000" stroke="none" 
	d="
M147.409515,72.240616 
	C148.211014,72.820755 148.554092,73.365944 149.227966,73.978134 
	C149.555161,83.331635 149.551544,92.618141 149.524963,102.361725 
	C149.501999,102.818802 149.086655,103.018639 148.686890,103.279449 
	C147.806000,103.512985 147.324860,103.485703 146.582672,103.272423 
	C145.214417,103.724182 144.107208,104.361938 142.555176,104.995476 
	C140.030838,104.986076 137.951340,104.980896 136.048401,104.740158 
	C136.480270,103.997887 136.735550,103.491173 136.990845,102.984467 
	C137.021545,101.825890 137.052231,100.667320 137.572083,99.110199 
	C138.339462,98.345100 138.617676,97.978554 138.895874,97.612000 
	C138.895874,97.612000 138.992859,97.321594 139.509583,97.294098 
	C141.115326,96.479324 143.033661,95.792633 143.143539,94.886612 
	C143.529480,91.704437 143.293365,88.446800 143.293365,84.996109 
	C140.752838,84.996109 138.836334,84.996109 136.961639,84.987350 
	C137.003464,84.978592 137.030563,85.059647 137.030563,85.059647 
	C137.030563,83.106895 137.030563,81.154152 137.030563,78.620712 
	C132.759430,78.620712 128.877625,78.620712 124.673584,78.620712 
	C124.673584,76.315620 124.673584,74.599556 124.673584,72.205666 
	C132.193604,72.205666 139.572342,72.205666 147.409515,72.240616 
z"/>
<path fill="#FBFBFB" opacity="1.000000" stroke="none" 
	d="
M137.572906,97.146408 
	C133.347198,97.146408 129.121506,97.146408 124.661636,97.146408 
	C124.661636,92.996956 124.661636,89.301964 124.661636,85.032341 
	C128.650726,85.032341 132.375549,85.032341 136.565460,85.045990 
	C137.030563,85.059647 137.003464,84.978592 136.947403,85.450142 
	C137.118530,89.663261 137.345718,93.404839 137.572906,97.146408 
z"/>
<path fill="#BDB1B2" opacity="1.000000" stroke="none" 
	d="
M135.871826,104.975716 
	C137.951340,104.980896 140.030838,104.986076 142.807068,104.988823 
	C143.671738,104.991280 143.839661,104.996162 143.943054,105.301323 
	C143.709183,106.369904 143.539841,107.138214 143.370483,107.906517 
	C143.260117,108.379463 143.149750,108.852402 143.025269,109.691284 
	C136.974030,110.057213 130.936920,110.057213 125.026093,110.057213 
	C123.731415,103.335022 123.731415,103.335022 133.584091,103.929276 
	C134.699783,104.491669 135.285797,104.733696 135.871826,104.975716 
z"/>
<path fill="#272422" opacity="1.000000" stroke="none" 
	d="
M137.833572,97.121307 
	C137.345718,93.404839 137.118530,89.663261 136.905579,85.458900 
	C138.836334,84.996109 140.752838,84.996109 143.293365,84.996109 
	C143.293365,88.446800 143.529480,91.704437 143.143539,94.886612 
	C143.033661,95.792633 141.115326,96.479324 139.587723,97.162460 
	C138.797501,97.070946 138.445877,97.083580 137.833572,97.121307 
z"/>
<path fill="#9B9291" opacity="1.000000" stroke="none" 
	d="
M136.048401,104.740158 
	C135.285797,104.733696 134.699783,104.491669 133.995758,104.034698 
	C134.650787,103.597015 135.423798,103.374275 136.593826,103.068001 
	C136.735550,103.491173 136.480270,103.997887 136.048401,104.740158 
z"/>
<path fill="#131112" opacity="1.000000" stroke="none" 
	d="
M148.766571,70.103577 
	C148.920059,70.023193 148.994278,70.497826 148.933929,70.730293 
	C148.725494,70.799797 148.561218,70.647438 148.442032,70.465538 
	C148.416138,70.426010 148.551834,70.280609 148.766571,70.103577 
z"/>
<path fill="#D5C7C6" opacity="1.000000" stroke="none" 
	d="
M138.501694,97.611290 
	C138.617676,97.978554 138.339462,98.345100 137.712524,98.792236 
	C137.611725,98.452072 137.859619,98.031319 138.501694,97.611290 
z"/>
<path fill="#D0C2C2" opacity="1.000000" stroke="none" 
	d="
M11.266486,152.349030 
	C52.825279,152.014496 94.291008,152.013016 136.200684,152.014648 
	C136.744064,152.465591 136.843475,152.913406 136.994507,153.702667 
	C136.581985,154.021957 136.117874,153.999817 135.322723,154.088348 
	C126.691284,154.118103 118.390892,153.972229 110.090416,153.967758 
	C77.358803,153.950089 44.627163,153.976868 11.424584,154.017242 
	C11.026896,153.592239 11.100157,153.137161 11.266486,152.349030 
z"/>
<path fill="#DECDC9" opacity="1.000000" stroke="none" 
	d="
M33.656105,59.878727 
	C31.505207,60.241753 29.032946,60.426025 26.292271,60.333679 
	C28.460817,59.938034 30.897783,59.819000 33.656105,59.878727 
z"/>
<path fill="#E3D3D2" opacity="1.000000" stroke="none" 
	d="
M23.867506,84.460892 
	C24.679510,85.062599 25.890015,86.097946 25.903957,87.149178 
	C26.028406,96.532913 25.958761,105.919601 25.870199,115.304710 
	C25.865459,115.806892 25.178143,116.302643 24.416254,116.899940 
	C23.919657,106.299622 23.815384,95.600761 23.867506,84.460892 
z"/>
<path fill="#0F0C0C" opacity="1.000000" stroke="none" 
	d="
M22.878769,60.120804 
	C23.202793,62.057621 23.335087,64.139069 23.355474,66.658119 
	C22.807171,65.260338 22.370771,63.424946 21.891647,61.146996 
	C22.084938,60.475361 22.364309,60.329029 22.878769,60.120804 
z"/>
<path fill="#0F0C0C" opacity="1.000000" stroke="none" 
	d="
M19.033047,61.057541 
	C19.116936,60.838245 19.316612,60.809231 19.819805,60.799232 
	C19.798492,60.961437 19.473665,61.104633 19.033047,61.057541 
z"/>
<path fill="#272422" opacity="1.000000" stroke="none" 
	d="
M143.762558,107.919479 
	C143.539841,107.138214 143.709183,106.369904 144.281433,105.377197 
	C145.404114,104.588005 146.123932,104.023216 146.843735,103.458420 
	C147.324860,103.485703 147.806000,103.512985 148.647552,103.506531 
	C148.715851,104.720001 148.423721,105.967209 148.115845,107.601753 
	C146.784927,107.970207 145.469788,107.951324 143.762558,107.919479 
z"/>
<path fill="#EBDCD9" opacity="1.000000" stroke="none" 
	d="
M38.338547,66.136749 
	C42.051285,65.511177 43.283325,66.910652 43.037342,70.185463 
	C42.826889,72.987267 43.025993,75.817909 42.986382,78.634987 
	C42.941273,81.842896 42.489250,85.182571 47.389091,85.247093 
	C47.931816,85.254234 48.925690,87.276207 48.838081,88.288231 
	C48.756626,89.229126 47.517509,90.791771 46.773884,90.800003 
	C45.317791,90.816132 43.548210,90.276932 42.490829,89.322395 
	C41.715282,88.622269 41.868504,86.893318 41.759659,86.362938 
	C39.520992,84.951485 36.362026,83.839684 36.395695,82.834862 
	C36.581371,77.293663 33.931484,71.395866 38.338547,66.136749 
z"/>
<path fill="#898785" opacity="1.000000" stroke="none" 
	d="
M146.582672,103.272430 
	C146.123932,104.023216 145.404114,104.588005 144.345947,105.076920 
	C143.839661,104.996162 143.671738,104.991280 143.251892,104.993042 
	C144.107208,104.361938 145.214417,103.724182 146.582672,103.272430 
z"/>
</svg>